# xmcd
#
# Track frame offsets:
#	150
#	26943
#	74946
#	86853
#	117749
#
# Disc length: 2024 seconds
#
# Revision: 1
# Processed by: cddbd v1.5.2PL0 Copyright (c) Steve Scherf et al.
# Submitted via: audiograbber 1.83.01
#
DISCID=5207e605
DTITLE=Grateful Dead - 69-09-01 Baton Rouge International Speedway, Prairievill
DTITLE=e LA
DYEAR=1900
DGENRE=
TTITLE0=Intro > Casey Jones
TTITLE1=Morning Dew
TTITLE2=Mama Tried
TTITLE3=High Time
TTITLE4=Easy Wind
EXTD=
EXTT0=
EXTT1=
EXTT2=
EXTT3=
EXTT4=
PLAYORDER=
